<?xml version="1.0" encoding="utf-8"?>
<!-- Generator: Adobe Illustrator 24.0.0, SVG Export Plug-In . SVG Version: 6.00 Build 0)  -->
<svg version="1.1" id="Layer_1" xmlns="http://www.w3.org/2000/svg" xmlns:xlink="http://www.w3.org/1999/xlink" x="0px" y="0px"
	 viewBox="0 0 864 864" style="enable-background:new 0 0 864 864;" xml:space="preserve">
<style type="text/css">
	.st0{fill:#212026;}
</style>
<g>
	<path class="st0" d="M713.1,385.2c-3.4-18.6-10.6-35.5-22.1-50.5c-12.8-16.7-29.2-28.5-48.4-36.7c-0.9-0.4-1.3-1-1.6-1.9
		c-1.5-4.6-2.7-9.3-4.7-13.7c-5.4-12.1-13.8-22.1-23-31.5c-21-21.3-45.3-37.9-71.7-51.9c-31.2-16.5-64.2-27.3-98.8-33.4
		c-10.9-1.9-21.9-3.3-32.9-4.4c-11.4-1.2-22.8-1.7-34.2-2.6c0,0.2-0.1,0.3-0.1,0.5c11,2.5,21.9,5.6,31.9,10.1
		c-7.6-0.3-15.5-0.9-23.5-0.9c-7.9-0.1-15.8,0.1-23.7,0.5c-7.9,0.4-15.8,1.2-23.7,2.1c-7.8,0.9-15.6,2-23.4,3.3
		c-7.7,1.3-15.4,2.9-23.1,4.3c14.8,1.3,29.4,3.6,43.8,7.7c-40.9,9.9-79.8,24.6-115.6,47c13.2-3,26.5-5.1,40-5.8
		c13.5-0.6,26.9-0.5,40.7,2c-18.5,6.8-35.5,15.9-51.5,26.6c-16.1,10.8-30.7,23.5-44,37.5c-13.3,14-25.1,29.2-34.2,46.3
		c20.3-18.1,43.2-31,70.3-35.7c-22.4,14.4-40.8,32.8-56.4,54.2c-15.6,21.3-27.9,44.3-34.3,70.1c0.3-0.2,0.5-0.4,0.7-0.7
		c4.9-9.7,10.8-18.7,17.6-27.1c10.3-12.6,21.8-23.9,35.7-32.6c5.1-3.2,10.5-5.9,15.7-8.8c0.2-0.1,0.4-0.2,0.6-0.3
		c0.1,0.1,0.2,0.2,0.3,0.3c-0.2,0.1-0.4,0.2-0.6,0.3c-8,8-14.9,16.7-20.5,26.5c-12.4,21.8-19.5,45.3-21.7,70.3
		c-1.4,15.6-0.5,31.1,2.5,46.4c3.7,18.5,9.9,36.3,18.4,53.2c4.1,8.2,8.8,16.1,13.2,24.2c0.2-0.1,0.3-0.1,0.5-0.2
		c-5.9-21.2-4.9-42.3,1.1-63.2c3.1,33.8,13.6,65,32.2,93.4c18.6,28.3,41.9,51.7,71.1,69.1c-10.5-15.7-18.2-32.6-21.5-51.3
		c-3.3-18.7-3.5-37.2,1.8-55.6c0.2,0.4,0.3,0.9,0.4,1.3c1.3,6.5,2.3,13.1,4.1,19.4c6.5,24,18.8,44.8,35.6,62.9
		c5.6,6.1,11.5,11.9,18.2,16.9c0.1,0.3,0.3,0.5,0.4,0.8c0.1-0.1,0.3-0.2,0.4-0.3c-0.2-0.2-0.3-0.5-0.5-0.7
		c-8.9-20.4-13.1-41.7-10.7-64c0.3-2.7,0.9-5.3,1.4-7.9c3.2,7.7,6.7,14.9,11,21.8c12.2,19.5,28.7,34.5,48.1,46.6
		c6.8,4.2,13.8,8.3,20,13.5c7.2,6.2,13.6,13,18.1,21.4c0.2,0.3,0.4,0.7,0.8,1.3c-1-27.5-7.4-53.4-17.4-78.5
		c20.6,20,39.2,41.5,51.7,67.9c0-0.6,0.1-1,0.1-1.3c-0.2-5.5-0.3-10.9-0.8-16.4c-1.2-13.5-4.2-26.6-8.7-39.4
		c-1.5-4.3-3.3-8.6-4.9-12.9c-0.1-0.2-0.1-0.3-0.2-0.5c0.1,0.1,0.3,0.2,0.4,0.3c0.4,0.4,0.9,0.8,1.3,1.3c9.3,10.1,18,20.8,25.5,32.4
		c9,13.9,16.7,28.4,21.2,44.3c0.1,0.2,0.2,0.3,0.4,0.7c16.2-12.4,25-28,22.8-49.1c11.6,12.9,18.4,28,22.1,44.8
		c0.1-0.4,0.2-0.6,0.2-0.8c2.5-12.2,2.2-24.4,0.1-36.6c-2.2-13.1-6.2-25.7-11.8-37.7c-4.1-8.8-9-17.2-13.5-25.8
		c-0.2-0.5-0.3-1-0.5-1.6c3.4,3.8,6.9,7.4,10.1,11.3c15.8,18.8,27.1,40.1,33.4,63.8c1.6,6.2,2.8,12.5,4,18.1
		c1.5-14.3,1-29.1-1.7-43.9c-3.2-17.1-8.4-33.7-15.4-49.6c-2.6-5.9-5.4-11.8-8.1-17.9c0.3,0.2,0.5,0.4,0.7,0.6
		c15.9,14.5,28.3,31.5,38.1,50.6c2.3,4.4,4.3,8.8,6.4,13.3c0,0,0.1-0.1,0.1-0.1c-1.9-6.7-3.6-13.5-5.8-20.2
		c-4.7-14.6-11.9-28.1-19.1-41.6c-7.8-14.6-15.3-29.4-20.7-45.1c-5.3-15.4-9.1-31.1-7.6-47.6c0.7-7.3,2.9-14.1,7.2-20.1
		c0.2-0.3,0.3-0.7,0.4-1.1c0.2,0.2,0.3,0.3,0.5,0.5c-0.2,11.6,4,24.7,6.3,28.2c0.2-1.8,0.3-3.6,0.5-5.3c1.5-11.1,4.4-21.7,9.9-31.5
		c7.4-13,17.7-22.4,32.5-26.3c1.3-0.3,2.5-0.3,3.7,0.2c5.7,2.3,11.5,4.6,17.2,6.9c12.2,4.8,24.5,9.1,37.4,11.8
		c3.2,0.7,6.4,1.2,9.8,1.9c-1.4,26.3-10.1,49.8-25.7,70.8c4.3-2.4,8.7-4.7,12.8-7.4c12.4-8.2,22.5-18.7,31.2-30.6
		c14.2-19.4,22.8-41.1,25.1-65.1C715.7,408.9,715.2,397,713.1,385.2z M239.4,511.4c0-1.7,0-3,0-4.3c0-1.4,0.1-2.8,0.2-4.2
		c1.4-15.5,4.8-30.5,10.8-44.9c4.9-12,11.7-22.6,21.5-31.3c0.4-0.4,0.9-0.8,1.3-1.2C254.8,450.5,243.9,485.8,239.4,511.4z
		 M254.3,546.6c1.1,18.9,5.1,37.3,11.4,55.1c6.3,17.7,15,34.2,25.7,49.8C262.2,618.8,250.8,584.8,254.3,546.6z M399.2,609.7
		c-5-17.4-5.8-34.9-0.9-52.5c0.6-2.2,1.5-4.2,2.2-6.3c0.3-0.7,0.6-1.4,1-2.1c-2.1,17.6-1.2,35.1,1.9,52.5c3.1,17.3,8.5,33.9,15.4,50
		C410.3,638.3,403.5,624.6,399.2,609.7z M391.6,498.5c-4.3,9.9-6.8,20.2-7.3,31c0,0.5-0.1,1-0.2,1.8c-2.6-15.2-0.9-37.2,8.4-55.9
		c8.7-17.5,22-30.9,38.1-41.7c-2,0.8-4,1.6-6,2.5c-22.7,10.1-41.9,24.5-56.3,45c-8.5,12.2-13.8,25.7-16.2,40.3
		c-2.1,12.9-1.4,25.7,0.6,38.5c2.8,17.5,8.2,34.2,14.4,50.8c0.3,0.7,0.5,1.4,0.6,2.2c-21.3-36.8-35.3-75.7-34-119.1
		c-0.2,0.4-0.4,0.8-0.6,1.1c-0.2,0.4-0.3,0.7-0.5,1.1c-4.4,10.6-7.1,21.7-8.3,33.1c-2.3,20.5-0.1,40.7,4.9,60.6
		c0.6,2.3,1.1,4.7,1.7,7c-0.1,0-0.3,0.1-0.4,0.1c-1.6-4.2-3.3-8.5-4.8-12.7c-5.6-15.5-9.4-31.4-11.8-47.7
		c-2.3-15.3-2.7-30.7-1.3-46.1c2.8-30.9,14.9-57.6,37.4-79.2c4.2-4.1,9.2-7.4,13.9-11c0.3-0.2,0.6-0.4,1.4-0.9
		c-6.2,1.2-11.6,2.9-16.9,5.3c-15.5,7.1-27.6,17.9-37.3,31.9c-10.3,14.8-17.5,31.1-23.4,48.1c-4.3,12.5-7.7,25.2-10.5,38.1
		c0-0.6,0-1.3,0-1.9c0.4-10.6,0.4-21.2,1.1-31.8c1.6-22.3,5.3-44.2,13.5-65.2c6-15.4,14.6-29.2,26.9-40.3
		c7.3-6.6,15.4-11.8,24.4-15.8c-2.3,0.4-4.6,0.6-6.8,1.1c-26.2,6.1-49.8,17.8-71,34.2c-16.4,12.7-30.7,27.4-43.3,43.9
		c-0.1,0.1-0.3,0.2-0.4,0.3c0.1-0.2,0.1-0.3,0.2-0.5c1.7-6,3.3-12,5.1-18c6-19.4,13.9-37.9,24-55.5c9.8-16.9,21.8-32,37.1-44.3
		c16.4-13.2,35.1-21.9,55.8-26.1c12.7-2.5,25.4-3.3,38.3-2.6c2.6,0.1,5.2,0.4,7.8,0.6c-0.8-0.4-1.7-0.8-2.6-1.1
		c-11.5-3.6-23.2-6-35.2-7.3c-28.8-3.1-55.6,3.1-80.8,17c-5.2,2.8-10,6.2-15.1,9.3c-0.2,0.2-0.5,0.4-0.7,0.6
		c-0.1-0.1-0.1-0.1-0.2-0.2c0.2-0.2,0.5-0.4,0.7-0.6c6.3-4.7,12.4-9.7,18.9-14.2c13.1-9.1,27.4-15.8,42.6-20.7
		c0.3-0.1,0.6-0.2,1-0.4c-4.7-1.3-18.2-1.1-26.2,0c-8.7,1.1-17.1,3.2-25.5,5.9c4.4-4.3,20.6-11.7,33.1-15.4
		c-2.1-0.4-4.2-0.9-6.3-1.3c-8.8-1.4-17.7-1.8-26.6-1c-4,0.4-7.9,1.2-11.8,1.8c0.2-0.3,0.4-0.8,0.7-1c26-18.2,54.5-30.7,85.6-37
		c15.4-3.1,31-4,46.7-3.4c4,0.2,8.1,0.7,12.1,1c0.2,0,0.5-0.1,0.8-0.2c0,0,0,0,0,0c0,0,0,0,0,0c0,0,0,0,0,0l0,0
		c-11.5-4.2-23.2-8-35.1-10.5c-10.9-2.3-21.9-4.2-32.8-6c-12.2-1.9-24.4-2.5-36.7-2.4c-0.1,0-0.2-0.1-0.7-0.2
		c32.7-10.9,65.7-14.9,99.7-8.5c-4.6-2.5-28.5-8.1-44.4-9.1c33-5.1,64.2,1.2,94.3,15.2c-2.9-3-25.9-14-41.1-19.7
		c-12.1-4.5-29.4-9.3-44-12.3c3.4-0.3,6.8-0.8,10.2-0.9c42.8-2.1,82.8,7.6,119.7,29.4c1.2,0.7,2.4,1.4,3.7,2.1
		c0.1-0.1,0.3-0.2,0.4-0.3c-7.5-5.7-15.6-10.5-23.8-15c-13.2-7.2-26.9-13.3-41.1-18c-0.3-0.1-0.7-0.3-1-0.7
		c4.1,0.3,8.3,0.4,12.4,0.9c54.4,7.6,102.9,29.6,147.4,61.3c11.7,8.4,22.5,17.9,31.5,29.3c6,7.6,10.7,15.9,12.9,25.5
		c0.1,0.3,0.1,0.6,0.1,0.8c0,0.1-0.1,0.2-0.1,0.2c-4.8-1.3-9.6-2.6-14.5-3.9c-1-0.3-1.6-0.6-1.9-1.7c-0.9-3.5-2.7-6.5-5-9.2
		c-0.2,3.1-0.5,6.3-0.7,9.4c-0.2,0-0.3,0.1-0.5,0.1c-1.3-6-4.4-10.9-9.5-14.7c1.5,8.5,0.2,16.5-2.6,24.8c-0.8-4.8-2-9.1-4.2-13
		c-0.1-0.2-0.1-0.4-0.2-0.6c-0.1,0-0.1,0-0.2,0c0,0.3,0.1,0.5,0.1,0.8l0,0c0.9,8.3-0.9,16.1-3.7,23.8c-0.7,1.9-1.5,3.7-2.3,5.5
		c-0.1-4.4-0.8-8.6-2.2-12.7c-1.4-4-3.1-7.8-5.8-11.1c4,8.4,4.8,18.5,2.2,29.1c-1.7-6.9-5-12.4-9.7-17.1c-0.1-0.1-0.2-0.2-0.2-0.2
		c-0.1-0.2-0.2-0.5-0.3-0.7c-0.1,0.1-0.3,0.2-0.4,0.4c0.1,0.2,0.3,0.3,0.4,0.5c0.1,0.1,0.2,0.3,0.3,0.4c3.8,7,5,14.6,4.3,22.9
		c-0.3-0.6-0.4-0.9-0.5-1.2c-3.6-10.2-10.9-16.7-20.9-20c-7.2-2.4-14.6-4.1-21.9-6c-10.7-2.7-20.8-6.8-30.7-11.5
		c-24.4-11.8-48.2-25-71.8-38.3c-2.6-1.4-5.2-2.8-7.8-4.3c11.7,9.6,23.3,19.2,34.9,28.8c-0.1,0.2-0.2,0.3-0.3,0.5
		c-2.7-0.5-5.3-1-8-1.5c-7-1.2-14.2-1.4-21.2-0.7c-14.8,1.5-29.5,1.8-44.2,0c-11.5-1.4-22.9-3.6-34.3-5.5c-3.8-0.6-7.5-1.5-11.2-2
		c9.9,3.4,19.8,6.6,29.6,10.1c9.7,3.6,19.6,6.9,29,12.5c-4.3,0-8.2,0.2-12,0c-22-1.5-42.4-8.9-62.9-16.4c-0.5-0.2-0.9-0.3-1.5-0.1
		c1.5,0.9,2.9,1.7,4.4,2.6c15.1,8.9,31.4,14.6,48.8,17.1c12,1.7,24.1,2.2,36.3,2.1c1.2,0,2.6,0.2,3.7,0.7c4.9,2.4,9.8,5,14.6,7.6
		c0.9,0.5,1.7,1.2,2.5,1.8c-0.1,0.2-0.1,0.4-0.2,0.6c-9.6-1.9-19.1-3.9-28.7-5.8c16.7,5.2,32.8,11.6,46.2,23.3
		c-6.5-0.4-12.5-2.7-18.6-4.8c-0.1,0.2-0.2,0.4-0.2,0.6c12.4,5.7,24.9,11.5,37.3,17.2c-0.1,0.2-0.1,0.4-0.2,0.5
		c-6.5,1.2-12.9,0.2-19.3-0.9c16,7,32.8,9.1,50.5,7.7c-5.5,4.5-11.7,6.7-18.2,8.3c3.4,0.7,16.5-0.8,24.7-2.8
		c8.1-1.9,15.8-4.9,23.5-8.3c-3.8,9.6-16,19.2-32,23.5c0.7,0,1.4,0,2.1-0.1c13.3-2.3,25.8-6.9,37.3-13.9c1.5-0.9,3.2-1.4,5-1.8
		c-6.4,8.5-15.4,12.7-25,16.3c3.1-0.7,6.3-1.3,9.4-2c9.3-2.2,17.9-6,25.9-11.4c0.1-0.1,0.2-0.2,0.3-0.2c0,0.2,0,0.3,0,0.5
		c-2.4,3.6-5.3,6.6-9.3,8.6c5.3-1.3,10-4,14.4-7.1c0.4-0.3,0.7-0.6,1.1-0.9c0.1,0.1,0.1,0.1,0.2,0.2c-0.3,0.3-0.6,0.7-0.9,1
		c-4.1,4.6-9.9,8-19,11.1c0.6-0.1,1.2-0.1,1.8-0.3c6.9-1.4,13.1-4.1,18.7-8.3c0.3-0.2,0.6-0.3,0.9-0.5c0.1-0.1,0.3-0.2,0.4-0.2
		c0,0.2,0,0.3-0.1,0.5c-1.7,2.7-4.1,4.7-6.7,6.5c4.3-1,8.1-3.1,11.5-6c-2.4,4.7-6.5,7.3-11.2,9.3c3.9,0.3,10.6-3.3,16.4-8.5
		c-3.5,6.8-9.8,10-16.3,13.1c8.6-2.3,16.7-5.6,22.6-12.8c-0.5,4.7-5.8,11.9-14,15.7c3.1,0.4,10-2.9,14.2-6.8
		c0.1-0.2,0.2-0.4,0.3-0.6c0.1,0.1,0.2,0.2,0.3,0.3c-0.1,0.2-0.2,0.4-0.4,0.5c-0.7,1.3-1.5,2.6-2.3,4.1c2-1,3.6-2.3,4.6-4.1
		c1.1-1.8,2-3.8,2.8-5.7c0.8-2,1.2-4,1.6-5.5c0.7,3.4,1.4,7.3,2.2,11.2c0.7,3.7-0.6,6.5-3.7,8.5c-3.5,2.3-7.5,3.3-11.5,3.3
		c-5.9,0-11.7-0.6-17.6-0.7c-8.5-0.1-17-0.3-25.5,0c-9.6,0.3-19.1,1.3-28.7,1.7c-7.3,0.3-14.6-0.2-21.8-2.2
		c-4.7-1.3-8.9-3.6-12.9-6.5c3.7-0.9,7.2-1.8,10.8-2.7c0-0.1,0-0.3,0-0.4c-23.9,4.5-47.1,1.5-69.7-7.3c5.1,6.6,11.9,10.7,18.8,14.3
		c-4,0-8,0-12.1,0c-16.6-0.2-33,1.3-48.9,6.6c-0.2,0.1-0.4,0.2-0.6,0.3c0.1,0.1,0.1,0.2,0.2,0.2c11.7-2.9,23.5-4.7,35.6-4.5
		c13.8,0.3,27.4,2,40.2,7.4c1.9,0.8,3.8,1.7,5.6,2.6c0,0.2,0,0.4,0.1,0.6c-4.1,1.3-8.1,2.9-12.2,3.8c-8.9,2-17.8,3.6-26.7,5.5
		c-6.1,1.3-12.1,2.8-18.1,4.6c6.1-1,12.1-2.3,18.2-2.9c6.3-0.7,12.6-1,18.9-0.9c6.2,0.1,12.4,0.8,18.6,1.6
		c-12,3.2-23.7,6.8-34.8,12.5c17.3-4.9,34.8-6.3,52.6-4.3c-7.1,2.1-14.1,4.5-20.6,8.1c8.2-2.4,16.6-4.2,25.3-4.3
		c-9.7,3.2-18.7,7.7-26.9,13.7c17.6-7.7,35.7-12.3,55.1-9.8c-15.9,3.2-31.6,7.3-46.9,13c10.4-2.5,20.9-4.1,31.5-4.7
		c10.7-0.6,21.3-0.3,32.4,1.2c-1.5,0.3-2.6,0.6-3.7,0.8c-1.1,0.2-2.2,0.4-3.3,0.7c-25.2,5.4-49.1,14.2-70.5,28.8
		C413.6,464.1,400,479.1,391.6,498.5z M558.5,352.9c-0.1,0-0.1,0-0.2,0c0.1-0.1,0.1-0.1,0.2-0.2
		C558.5,352.8,558.5,352.8,558.5,352.9z M479.2,313.3c2,5.8,7.6,9.7,13.9,9.8c7,0.1,12-3.9,15-12.2c2.4,1.8,4.8,3.5,7.2,5.3
		c-2.1,6-6,10.3-11.6,13.1c-10.6,5.4-23.5,4-31.7-3.7c-8.8-8.2-10.7-21.1-4.4-31c1.3-2,3.1-3.7,4.7-5.6c4.3,2.7,8.2,5.1,12.3,7.7
		C479,301.2,477.1,307.3,479.2,313.3z M434.3,300.3c-11.8-4-22.7-9.9-33.4-15.9C412,289.7,423.2,295,434.3,300.3z M433.8,499.7
		c4.5-14.4,13-26.1,24.7-35.6c-8,11.6-14.3,24.1-19,37.4c-4.7,13.4-7.3,27.1-6.3,41.4C429.5,528.5,429.3,514,433.8,499.7z
		 M438.4,601.3c-2.8-9.6-4.4-19.3-4.5-29.2c0.5,3.4,1,6.7,1.8,10c1.2,5.2,2.4,10.6,4.3,15.6c3.2,8.4,6.9,16.6,10.4,25
		c2.1,5.1,4.2,10.3,6.4,15.4c0.3,0.6,0.6,1.2,0.9,1.8c0,0,0,0,0,0c-0.3-0.1-0.7-0.2-0.8-0.4C449.6,627.3,442.3,615.1,438.4,601.3z
		 M457.5,640.3c0.1-0.2,0.2-0.3,0.2-0.5c0,0.2,0,0.4,0,0.6C457.6,640.4,457.5,640.3,457.5,640.3z M499.7,645
		c-4.3-10.6-9.7-20.5-17.1-29c-2.6-3.1-3.8-5.9-3.6-10c0.3-7.8-1.9-15.1-5-22.2c-0.1-0.2-0.2-0.3-0.6-0.8
		c-0.4,5.6-1.9,10.5-4.9,15.1c-0.9-0.9-1.8-1.8-2.5-2.7c-9.9-11.6-16-25.1-18.6-40c-2.8-16.3-1.9-32.5,2.8-48.5
		c0.1-0.4,0.2-0.7,0.4-1.3c0,3.8-0.1,7.4,0,11c0.5,18.3,6.9,34.5,17.7,49c7.4,10,13.8,20.6,16.9,32.7c0.9,3.4,1.5,6.9,2.2,10.4
		c4.1-2.3,7-5.8,9-10c2.9-6.1,3.4-12.7,2.9-19.3c-0.4-5.4-1.4-10.7-2-15c3.1,8.2,6.1,17.5,8.5,27c2.2,8.9,3.4,17.9,3,27.1
		c-0.4,8.8-2.6,17.1-7.7,24.5C500.7,643.7,500.2,644.3,499.7,645z M532.5,627.5c5.5,8.5,9.7,17.7,13.4,27.1c0,0.1,0,0.3,0,0.4
		c0-0.1,0-0.3,0-0.4c-0.4-0.4-0.8-0.8-1.1-1.3c-5.3-8.9-11-17.6-18.6-24.8c-0.4-0.4-0.8-0.7-1.4-1.3c2.6,14.5,3.4,28.6-0.5,42.6
		c-1.4,5.1-3.5,9.9-6.4,14.5c-0.1-0.2-0.2-0.2-0.2-0.3c-0.6-2.1-1.8-4.3-1.7-6.4c0.1-2,1.6-4,2.4-6.1c3.8-10.8,4.9-21.9,3.9-33.3
		c-0.1-1.1-0.2-2.2-0.3-3.4c0-0.2-0.1-0.4-0.3-0.6c-1.3,9.4-4.4,18-10.8,25.3c-0.7-1.8-1.5-3.6-2.1-5.3c-0.1-0.4,0-1.1,0.3-1.5
		c8.3-11.5,10.7-24.4,9.5-38.2c-0.2-2.7-0.6-5.3-0.5-8.2C522.8,613.3,527.8,620.3,532.5,627.5z M526.7,409.5c0.2,0,0.5-0.1,0.7-0.1
		c0,0.1,0,0.1,0,0.2c-0.2,0-0.5,0.1-0.7,0.1C526.7,409.7,526.7,409.6,526.7,409.5z M530.9,596.5c0.1,0,0.3,0,0.4-0.1
		c-0.1,0.1-0.1,0.2-0.2,0.3C531.1,596.6,531,596.5,530.9,596.5z M706.1,408.2c-0.4,16.3-4.1,31.8-12.8,45.8c-2.3,3.7-4.9,7-8.6,10
		c0.1-1.7,0.4-3,0.4-4.4c-0.3-20.8-8.6-37-26.9-47.6c-5.9-3.4-12.3-5.2-19.1-5.9c-1.4-0.1-3,0.3-4.4,0.7c-3.1,1.1-6.2,2.2-9.6,2.2
		c-2.7,0-5.1-0.6-7.4-1.9c-15.7-8.7-32.4-15-50-18.6c-9.2-1.9-18.5-3.2-27.8-3.2c-9.3,0-18.6,0.3-27.9,0.7
		c-4.1,0.2-8.1,0.9-12.2,1.4c0,0.2,0,0.4,0,0.5c4,0,8-0.1,12,0c21.4,0.8,42.4,3.8,62.9,9.9c15.2,4.5,29,11.9,42,20.9
		c5.7,3.9,11.5,7.8,18,10.3c5,1.9,10.2,2.8,15.5,3.3c-0.6,0.1-1.3,0.2-1.9,0.3c-9.3,0.3-18.1-2.1-26.5-5.9c-6.3-2.8-12.4-6.2-18.7-9
		c-14.2-6.2-29.2-9.4-44.8-9.9c-9.8-0.3-19.5,0-29.2,1.4c-0.4,0.1-0.8,0-1.3-0.2c14.4-4.2,29.2-5.8,44.2-5.2
		c-5.4-1.1-10.8-2.4-16.3-3.4c-21.1-4-42.3-4.4-63.7-3.9c-10.3,0.2-20.5-0.5-30.3-4.2c-6.1-2.4-11.2-6-14.9-11.4
		c-1.6-2.3-2.7-4.8-2.8-7.7c0-0.5,0.5-1.3,0.9-1.4c0.9-0.2,1.7-1.4,2.8-0.1c7,9,16.7,13.1,27.6,14.7c6,0.9,12.1,1,18.1,1.5
		c0-0.3,0.1-0.5,0.1-0.8c-0.5-0.1-1.1-0.2-1.6-0.3c-8.6-0.6-17-1.8-25-5.4c-6-2.6-11.3-6.1-15.4-11.3c-0.1-0.1-0.2-0.3-0.3-0.5
		c2.7-0.5,5.3-1,8-1.4c0.5-0.1,1.1,0.2,1.5,0.6c6.4,6,14.4,8.4,22.9,9.5c13.1,1.6,26.2,1,39.4,0.4c14.5-0.6,29-1,43.4,0.4
		c6,0.6,11.9,1.6,17.9,2.5c0.7,0.1,1.5,0.1,2.2,0.2l0,0c0,0,0,0,0,0c0.4,0.1,0.7,0.2,1.1,0.3c0-0.1,0-0.2,0.1-0.3
		c-0.3,0-0.7-0.1-1-0.1c-3.8-1.1-7.5-2.2-11.3-3.4c-1-0.3-2.1-0.5-3-0.8c2-0.7,4.1-1.2,6.2-2c5.6-2.3,8.4-6.2,7.3-12.1
		c-2.5-13.4,1.2-25.6,6.5-37.6c4.3-9.6,9.7-18.5,16.3-26.7c0.1-0.1,0.1-0.2,0.2-0.3c1.6-2.7,3.6-3.2,6.7-2.2
		c7.5,2.3,15,4.5,22.1,7.9c1.1,0.5,2.2,1.1,3.3,1.7c3,1.5,6.1,2.7,8.9,4.4c5.4,3.3,10.7,6.8,16.3,10.4c-1.6,1.5-2.9,2.6-4.1,3.8
		c-5.2,5-10.4,10-15.5,15.1c-7.3,7.4-15.8,12.3-26,14.4c-17.3,3.5-23.8,21.9-20.6,33.6c0.5,1.7,1.6,3.3,2.4,4.9
		c-0.4-2.4-1-4.9-1-7.3c-0.2-7.6,3.2-13.5,9.1-18.1c4.2-3.2,9.2-4.8,14.1-6.7c8.7-3.3,16.1-8.2,22.6-14.9c5.4-5.6,11-10.8,16.7-16
		c1.8-1.7,4.2-2.9,6.2-4.3c1-0.7,1.8-0.6,2.7,0.2c9.6,8.7,17,19,22.4,30.8c3.1,6.7,5.7,13.7,7.3,21c0.2,1,0.2,2.1,0.4,3.2
		c0.4,1.1,0.8,2.2,1.1,3.4C705.4,392.2,706.3,400.2,706.1,408.2z"/>
	<path class="st0" d="M390.1,300.8c0,0-0.1,0-0.1,0C390,300.8,390.1,300.8,390.1,300.8L390.1,300.8z"/>
	<path class="st0" d="M599.1,643.4c0.1,0,0.1,0,0.2-0.1c-0.1-0.3-0.2-0.5-0.2-0.8c0,0-0.1,0.1-0.1,0.1
		C598.9,642.9,599,643.1,599.1,643.4z"/>
	<path class="st0" d="M378.3,332.3c-5.3-1-10.5-1.9-15.8-2.5c-10.4-1.2-20.8-0.7-31.1,1.6c-16.6,3.7-31.1,11.5-43.8,22.7
		c-6.5,5.8-12.3,12.2-17.3,19.4c-0.3,0.4-0.7,0.8-1,1.2c0.1,0.1,0.2,0.1,0.3,0.2c0.3-0.4,0.7-0.8,1-1.2
		C299.8,342.7,335.5,328.3,378.3,332.3z"/>
	<path class="st0" d="M340.9,472.1c12.2-19.6,27.9-34.8,48.4-45.1c-9.2,3.1-17.8,7.3-25.4,13.3C353.3,448.6,345.5,458.9,340.9,472.1
		z"/>
	<path class="st0" d="M497.9,212.5c0.1-0.1,0.1-0.2,0.2-0.3c-1.3-0.9-2.5-1.8-3.8-2.7c-0.1,0.1-0.3,0.2-0.4,0.3
		C495.3,210.7,496.6,211.6,497.9,212.5z"/>
	<path class="st0" d="M395.5,205.1c0,0.1,0,0.1,0,0.2c0.3,0,0.5,0,0.8,0.1c0-0.1,0-0.2,0-0.3C396.1,205.1,395.8,205.1,395.5,205.1z"
		/>
	<path class="st0" d="M390.1,300.8C390.1,300.8,390.1,300.8,390.1,300.8c0,0,0.1,0,0.1,0C390.2,300.8,390.2,300.8,390.1,300.8z"/>
	<path class="st0" d="M390.9,300.8c-0.2,0-0.4,0-0.7,0c0.2,0.1,0.4,0.1,0.6,0.2C390.9,301,390.9,300.9,390.9,300.8z"/>
	<path class="st0" d="M359.4,379.1c0.2,0.2,0.3,0.2,0.5,0.2c0.2,0,0.4-0.1,0.6-0.2c-0.1-0.1-0.1-0.2-0.2-0.2
		C360,379,359.7,379.1,359.4,379.1z"/>
	<path class="st0" d="M401.3,233c-0.1-0.1-0.1-0.2-0.2-0.3c-0.1,0.1-0.2,0.2-0.2,0.3C401,233,401.2,233,401.3,233z"/>
	<path class="st0" d="M343.6,367.4C343.6,367.4,343.6,367.4,343.6,367.4L343.6,367.4z"/>
	<path class="st0" d="M343.6,367.5C343.6,367.4,343.6,367.4,343.6,367.5C343.6,367.4,343.6,367.4,343.6,367.5
		C343.7,367.4,343.7,367.4,343.6,367.5z"/>
	<path class="st0" d="M343.6,367.5C343.6,367.5,343.5,367.5,343.6,367.5C343.5,367.5,343.5,367.5,343.6,367.5
		c-0.1,0.1-0.2,0.1-0.2,0.1C343.4,367.6,343.5,367.6,343.6,367.5C343.6,367.5,343.6,367.5,343.6,367.5z"/>
	<path class="st0" d="M623.3,349.4c7.2-1.3,12-5.9,16.3-11.8c-1.2-0.7-2.3-1.4-3.5-1.9c-1.4-0.6-2.8-1-4.3-1.4c-2.9-0.4-5.8-1-8.7-1
		c-11.7-0.1-19.8,5.6-25.2,15.6c-1.7,3.2-2.1,6.7-1.6,10.2c0.8-0.7,1.7-1.5,2.5-2.2c5.1-4.7,11.2-7,18-7.4
		C619.1,349.4,621.2,349.4,623.3,349.4z"/>
</g>
</svg>
